<?xml version="1.0" encoding="UTF-8"?>
<svg xmlns:xodm="http://www.corel.com/coreldraw/odm/2003" xmlns="http://www.w3.org/2000/svg" xmlns:xlink="http://www.w3.org/1999/xlink" version="1.1" id="Layer_1" x="0px" y="0px" viewBox="0 0 2500 2500" style="enable-background:new 0 0 2500 2500;" xml:space="preserve">
<style type="text/css">
	.st0{fill:#F8E19A;}
	.st1{fill:#FFFFFF;}
</style>
<g id="Layer_x0020_1">
	<g id="_2497851986272">
		<g id="Layer_x0020_1_0">
			<g id="_3036948932928">
				<circle class="st0" cx="1250" cy="1250" r="1250"></circle>
				<g>
					<ellipse class="st1" cx="1580.7" cy="1237.9" rx="174.2" ry="176.3"></ellipse>
					<path class="st1" d="M2057,1498.3l-5.1-8l-1.4-2.2c-19.1-30-24.9-36.3-34.1-50.2c-127.5-196.2-54.6-322.3,2.7-386.7       c7-7.8,13.5-17.1,19.5-24.2c8.7-10.1,16.2-21.2,22.3-33.1l1-1.7c11.2-22.4,17.1-47.2,17.1-72.3c0-0.8,0-1.6,0-2.3       c-7.9-88-81.6-155.4-170-155.4c-88.3,0-162.1,67.4-170,155.4l0,0c0,28.3,7.2,56.1,20.8,80.9c2,4.1,11.8,17.1,12.8,19.3       c2.1,3.3,4.5,6.3,7.2,9c5.9,7.3,12.3,14.3,19.1,20.8c16.9,18.8,31.7,39.5,44,61.6c20.1,41.3,30.7,86.9,30.7,132.9       c0,65.5-21.3,129.3-60.6,181.8l-42.3,60.8c-1.3,1.7-2.6,3.6-3.8,5.4l-1,1.4c-16.6,26.3-25.5,56.9-25.5,88c0,1,0,2,0,3       c7.9,88,81.6,155.4,170,155.4c88.3,0,162.1-67.4,170-155.4c0-29.6-8-58.7-23-84.1L2057,1498.3L2057,1498.3z"></path>
					<path class="st1" d="M1390.6,1488.1c-19.1-30-24.9-36.3-34.1-50.2c-127.5-196.2-54.6-322.3,2.7-386.7       c7-7.8,13.5-17.1,19.4-24.2c8.7-10.1,16.2-21.2,22.3-33.1l1-1.7c11.2-22.8,17.1-48,17.1-73.4c0-0.4,0-0.8,0-1.2       c0-1,0-2.2,0-3.2c0-94.2-76.4-170.6-170.6-170.6s-170.7,76.4-170.7,170.7c0,29.5,7.6,58.5,22.1,84.1       c2.1,4.1,11.8,17.1,12.8,19.3c2.1,3.3,4.5,6.3,7.2,9c5.9,7.3,12.3,14.3,19.1,20.8c17.1,18.8,32,39.5,44.5,61.6       c20.4,41.5,31,87.3,31,133.6c0,65.2-21.1,128.8-60,181.1c-27.9,39.3-56.8,64.9-99.1,88.6c-177.8,84.8-321.7-32.4-321.7-32.4       l-14.5-11.9c-10.8-8.3-20-18.6-27.1-30.2c-127.5-196.3-54.6-322.4,2.7-386.7c7-7.8,13.5-17.1,19.4-24.2       c8.7-10.1,16.2-21.2,22.3-33.1l1-1.7c11.8-23.1,17.9-48.6,17.9-74.5l0,0c-7.9-88-81.6-155.4-170-155.4       c-88.3,0-162.1,67.4-170,155.4l0,0c0,28.3,7.2,56.1,20.8,80.9c2,4.1,11.8,17.1,12.8,19.3c2.1,3.3,4.5,6.3,7.2,9       c5.9,7.3,12.3,14.3,19.1,20.8c16.8,18.8,31.5,39.6,43.7,61.6c20.2,41.3,30.7,86.9,30.7,132.9c0,65.5-21.3,129.3-60.6,181.8       l-21.7,30.7c-33.7,32.2-52.7,76.8-52.7,123.3l0,0v3.9c1.7,93,77.6,167.6,170.6,167.6c45.2,0,88.5-17.9,120.5-49.8       c8.4-5.8,13.8-9.9,21.5-14.8c196.3-127.5,322.4-54.6,386.9,2.7c5.1,4.6,10.6,9,16,13.1c31.9,31.3,74.8,48.8,119.5,48.8       c93.3,0,169.3-75,170.6-168.3C1420.2,1545.5,1410.6,1517.5,1390.6,1488.1L1390.6,1488.1z"></path>
				</g>
			</g>
		</g>
	</g>
</g>
</svg>
