<?xml version="1.0" encoding="UTF-8"?>
<svg width="1000px" height="608px" viewBox="0 0 1000 608" version="1.1" xmlns="http://www.w3.org/2000/svg" xmlns:xlink="http://www.w3.org/1999/xlink">
    <title>编组</title>
    <defs>
        <polygon id="path-1" points="0 0 345.290742 0 345.290742 345.07874 0 345.07874"></polygon>
        <polygon id="path-3" points="0 608 1000 608 1000 0 0 0"></polygon>
    </defs>
    <g id="换色" stroke="none" stroke-width="1" fill="none" fill-rule="evenodd">
        <g id="SVG" transform="translate(-271.000000, -4270.000000)">
            <g id="编组" transform="translate(271.000000, 4270.000000)">
                <g transform="translate(324.946687, 0.000000)">
                    <mask id="mask-2" fill="white">
                        <use xlink:href="#path-1"></use>
                    </mask>
                    <g id="Clip-2"></g>
                    <path d="M172.645371,267.435118 C120.203228,267.435118 77.6884051,224.946804 77.6884051,172.537359 C77.6884051,120.127915 120.203228,77.6432556 172.645371,77.6432556 L172.645371,-0.000365553771 C77.2933607,-0.000365553771 0,77.2484575 0,172.537359 C0,267.826261 77.2933607,345.07874 172.645371,345.07874 C267.997381,345.07874 345.290742,267.826261 345.290742,172.537359 L267.602337,172.537359 C267.602337,224.946804 225.087513,267.435118 172.645371,267.435118" id="Fill-1" fill="#2354E6" mask="url(#mask-2)"></path>
                </g>
                <mask id="mask-4" fill="white">
                    <use xlink:href="#path-3"></use>
                </mask>
                <g id="Clip-4"></g>
                <polygon id="Fill-3" fill="#17E6A1" mask="url(#mask-4)" points="497.587669 172.537725 592.544635 172.537725 592.544635 77.6399656 497.587669 77.6399656"></polygon>
                <path d="M566.460366,494.867688 C573.743082,475.566448 592.39064,461.828938 614.253421,461.828938 C636.119859,461.828938 654.76376,475.566448 662.050134,494.867688 L566.460366,494.867688 Z M614.253421,426.417744 C566.48597,426.417744 527.749674,465.126233 527.749674,512.871211 C527.749674,560.619845 566.48597,599.324678 614.253421,599.324678 C647.03479,599.324678 675.551142,581.109133 690.233625,554.259209 L658.26795,538.759729 C649.383109,553.809578 633.003398,563.913484 614.253421,563.913484 C590.569047,563.913484 570.652226,547.796218 564.87653,525.939758 L663.630312,525.939758 C663.622996,525.958036 663.619338,525.976314 663.61568,525.998247 L699.784189,525.998247 C700.438938,521.717612 700.775458,517.334622 700.775458,512.871211 C700.775458,465.126233 662.039161,426.417744 614.253421,426.417744 L614.253421,426.417744 Z M710.823485,594.711389 L748.930637,594.711389 L748.930637,556.627997 L710.823485,556.627997 L710.823485,594.711389 Z M769.015718,594.711389 L807.12287,594.711389 L807.12287,448.186471 L769.015718,448.186471 L769.015718,594.711389 Z M769.015718,431.444108 L807.12287,431.444108 L807.12287,393.360716 L769.015718,393.360716 L769.015718,431.444108 Z M913.495887,563.913484 C885.286791,563.913484 862.421768,541.059062 862.421768,512.871211 C862.421768,484.683359 885.286791,461.828938 913.495887,461.828938 C941.701324,461.828938 964.566347,484.683359 964.566347,512.871211 C964.566347,541.059062 941.701324,563.913484 913.495887,563.913484 L913.495887,563.913484 Z M913.477598,426.417744 C865.710147,426.417744 826.970192,465.126233 826.970192,512.871211 C826.970192,560.619845 865.710147,599.324678 913.477598,599.324678 C961.263337,599.324678 999.999634,560.619845 999.999634,512.871211 C999.999634,465.126233 961.263337,426.417744 913.477598,426.417744 L913.477598,426.417744 Z M473.324994,393.360716 L437.917311,393.360716 L437.917311,431.444108 L416.690991,431.444108 L416.690991,464.841101 L437.917311,464.841101 L437.917311,552.245008 C437.917311,561.27053 439.047577,568.866738 441.297136,574.825264 C443.517431,580.721646 446.908229,585.334935 450.939145,588.942951 C455.024928,592.602144 459.820328,595.453463 465.497262,597.072867 C471.272957,598.69227 477.644877,599.324678 484.378921,599.324678 C491.347065,599.324678 497.565356,598.600881 502.865535,597.171566 C507.792616,595.848262 512.511202,593.976626 516.900584,591.604182 L516.900584,564.692114 C509.914151,567.707932 503.384945,568.808249 495.937627,569.148214 C488.069659,569.517423 483.413257,567.272923 479.543285,563.584486 C475.486764,559.724238 473.324994,554.686907 473.324994,546.242615 L473.324994,464.841101 L516.900584,464.841101 L516.900584,431.444108 L473.324994,431.444108 L473.324994,393.360716 Z M116.709646,481.005889 L116.709646,520.383341 L169.993087,520.383341 C167.209487,531.638741 161.711786,541.720715 153.825529,549.77752 C141.926646,561.928527 125.429885,568.618161 107.371236,568.618161 C69.8932283,568.618161 39.4053119,538.149254 39.4053119,500.69827 C39.4053119,463.243631 69.8932283,432.771068 107.371236,432.771068 C127.445343,432.771068 145.895379,441.354271 158.690428,456.159199 L189.196633,431.250365 C168.972555,407.56248 138.960155,393.386305 107.371236,393.386305 C48.165787,393.386305 -0.00036578184,441.526081 -0.00036578184,500.69827 C-0.00036578184,559.863148 48.165787,607.999269 107.371236,607.999269 C136.114373,607.999269 162.615267,597.646786 181.987073,577.863016 C198.246076,561.263219 209.018351,538.094421 211.092334,514.892723 C212.101892,503.567867 212.193338,492.3344 211.597113,481.005889 L116.709646,481.005889 Z M310.815437,563.924451 C282.606342,563.924451 259.737661,541.066373 259.737661,512.871211 C259.737661,484.679704 282.606342,461.825282 310.815437,461.825282 C339.028191,461.825282 361.893214,484.679704 361.893214,512.871211 C361.893214,541.066373 339.028191,563.924451 310.815437,563.924451 L310.815437,563.924451 Z M361.900529,443.368472 C347.576512,432.855146 329.953143,426.567621 310.815437,426.567621 C263.047987,426.567621 224.322663,465.268799 224.322663,513.010121 C224.322663,560.751444 263.047987,599.448966 310.815437,599.448966 C329.953143,599.448966 347.576512,593.165097 361.900529,582.655426 L361.900529,594.711389 L397.311869,594.711389 L397.311869,431.308853 L361.900529,431.308853 L361.900529,443.368472 Z" id="Fill-5" fill="#000000" mask="url(#mask-4)"></path>
            </g>
        </g>
    </g>
</svg>